<mxfile host="app.diagrams.net" agent="Mozilla/5.0 (Windows NT 10.0; Win64; x64) AppleWebKit/537.36 (KHTML, like Gecko) Chrome/139.0.0.0 Safari/537.36 Edg/139.0.0.0" version="28.1.1">
  <diagram name="Page-1" id="6AxY8d68MYG01BG7uqcW">
    <mxGraphModel dx="4360" dy="1512" grid="0" gridSize="10" guides="1" tooltips="1" connect="1" arrows="1" fold="1" page="1" pageScale="1" pageWidth="1600" pageHeight="1200" background="light-dark(#FFFFFF,#FFFFFF)" math="0" shadow="0">
      <root>
        <mxCell id="0" />
        <mxCell id="1" parent="0" />
        <mxCell id="VVqcYURe2gfnDvIVS-2d-152" value="Private subnet" style="points=[[0,0],[0.25,0],[0.5,0],[0.75,0],[1,0],[1,0.25],[1,0.5],[1,0.75],[1,1],[0.75,1],[0.5,1],[0.25,1],[0,1],[0,0.75],[0,0.5],[0,0.25]];outlineConnect=0;gradientColor=none;html=1;whiteSpace=wrap;fontSize=20;fontStyle=0;container=1;pointerEvents=0;collapsible=0;recursiveResize=0;shape=mxgraph.aws4.group;grIcon=mxgraph.aws4.group_security_group;grStroke=0;strokeColor=#00A4A6;fillColor=light-dark(#E6F6F7,#FFCCCC);verticalAlign=top;align=left;spacingLeft=30;fontColor=light-dark(#147EBA,#000066);dashed=0;" vertex="1" parent="1">
          <mxGeometry x="589" y="1443" width="374" height="200" as="geometry" />
        </mxCell>
        <mxCell id="VVqcYURe2gfnDvIVS-2d-6" style="edgeStyle=orthogonalEdgeStyle;rounded=0;orthogonalLoop=1;jettySize=auto;html=1;exitX=0;exitY=1;exitDx=0;exitDy=0;" edge="1" parent="1" source="VVqcYURe2gfnDvIVS-2d-5">
          <mxGeometry relative="1" as="geometry">
            <mxPoint x="-578.333333333333" y="811.666666666667" as="targetPoint" />
          </mxGeometry>
        </mxCell>
        <mxCell id="VVqcYURe2gfnDvIVS-2d-5" value="PRODUCTION VPC" style="points=[[0,0],[0.25,0],[0.5,0],[0.75,0],[1,0],[1,0.25],[1,0.5],[1,0.75],[1,1],[0.75,1],[0.5,1],[0.25,1],[0,1],[0,0.75],[0,0.5],[0,0.25]];outlineConnect=0;gradientColor=none;html=1;whiteSpace=wrap;fontSize=27;fontStyle=0;container=1;pointerEvents=0;collapsible=0;recursiveResize=0;shape=mxgraph.aws4.group;grIcon=mxgraph.aws4.group_vpc2;strokeColor=#8C4FFF;fillColor=none;verticalAlign=top;align=left;spacingLeft=30;fontColor=#AAB7B8;strokeWidth=7;perimeterSpacing=6;" vertex="1" parent="1">
          <mxGeometry x="-1092" y="70" width="1555" height="1101" as="geometry" />
        </mxCell>
        <mxCell id="VVqcYURe2gfnDvIVS-2d-8" value="Availability Zone-a" style="fillColor=none;strokeColor=#147EBA;dashed=1;verticalAlign=top;fontStyle=0;fontColor=#147EBA;whiteSpace=wrap;html=1;strokeWidth=7;rounded=1;glass=0;sketch=1;curveFitting=1;jiggle=2;arcSize=17;fontSize=28;" vertex="1" parent="VVqcYURe2gfnDvIVS-2d-5">
          <mxGeometry x="95" y="156" width="530" height="896" as="geometry" />
        </mxCell>
        <mxCell id="VVqcYURe2gfnDvIVS-2d-9" value="Availability Zone-b" style="fillColor=none;strokeColor=#147EBA;dashed=1;verticalAlign=top;fontStyle=0;fontColor=#147EBA;whiteSpace=wrap;html=1;strokeWidth=7;perimeterSpacing=3;rounded=1;glass=0;shadow=0;sketch=1;curveFitting=1;jiggle=2;fontSize=27;" vertex="1" parent="VVqcYURe2gfnDvIVS-2d-5">
          <mxGeometry x="858" y="156" width="530" height="898" as="geometry" />
        </mxCell>
        <mxCell id="VVqcYURe2gfnDvIVS-2d-26" value="" style="edgeStyle=orthogonalEdgeStyle;rounded=0;orthogonalLoop=1;jettySize=auto;html=1;" edge="1" parent="VVqcYURe2gfnDvIVS-2d-5" source="VVqcYURe2gfnDvIVS-2d-89">
          <mxGeometry relative="1" as="geometry">
            <mxPoint x="742.5" y="133" as="targetPoint" />
          </mxGeometry>
        </mxCell>
        <mxCell id="VVqcYURe2gfnDvIVS-2d-10" value="Internet&#xa;gateway" style="sketch=0;outlineConnect=0;fontColor=light-dark(#232F3E, #021731);gradientColor=none;strokeColor=light-dark(#232F3E,#0000FF);fillColor=none;dashed=0;verticalLabelPosition=bottom;verticalAlign=top;align=center;html=1;fontSize=15;fontStyle=0;aspect=fixed;shape=mxgraph.aws4.resourceIcon;resIcon=mxgraph.aws4.internet_gateway;strokeWidth=10;textShadow=1;" vertex="1" parent="VVqcYURe2gfnDvIVS-2d-5">
          <mxGeometry x="718" y="-46" width="82" height="82" as="geometry" />
        </mxCell>
        <mxCell id="VVqcYURe2gfnDvIVS-2d-12" value="" style="shape=ext;double=1;rounded=1;whiteSpace=wrap;html=1;fillColor=none;strokeWidth=2;strokeColor=light-dark(#000000,#990000);dashed=1;" vertex="1" parent="VVqcYURe2gfnDvIVS-2d-5">
          <mxGeometry x="20" y="219" width="1488" height="235" as="geometry" />
        </mxCell>
        <mxCell id="VVqcYURe2gfnDvIVS-2d-13" value="" style="shape=ext;double=1;rounded=1;whiteSpace=wrap;html=1;fillColor=none;strokeWidth=2;strokeColor=light-dark(#000000,#990000);dashed=1;" vertex="1" parent="VVqcYURe2gfnDvIVS-2d-5">
          <mxGeometry x="24" y="509" width="1488" height="235" as="geometry" />
        </mxCell>
        <mxCell id="VVqcYURe2gfnDvIVS-2d-14" value="" style="shape=ext;double=1;rounded=1;whiteSpace=wrap;html=1;fillColor=none;strokeWidth=2;strokeColor=light-dark(#000000,#990000);dashed=1;" vertex="1" parent="VVqcYURe2gfnDvIVS-2d-5">
          <mxGeometry x="15" y="798" width="1488" height="235" as="geometry" />
        </mxCell>
        <mxCell id="VVqcYURe2gfnDvIVS-2d-21" value="" style="outlineConnect=0;dashed=0;verticalLabelPosition=bottom;verticalAlign=top;align=center;html=1;shape=mxgraph.aws3.auto_scaling;fillColor=#F58534;gradientColor=none;" vertex="1" parent="VVqcYURe2gfnDvIVS-2d-5">
          <mxGeometry x="703.5" y="236" width="79.5" height="76.5" as="geometry" />
        </mxCell>
        <mxCell id="VVqcYURe2gfnDvIVS-2d-24" value="Public subnet" style="points=[[0,0],[0.25,0],[0.5,0],[0.75,0],[1,0],[1,0.25],[1,0.5],[1,0.75],[1,1],[0.75,1],[0.5,1],[0.25,1],[0,1],[0,0.75],[0,0.5],[0,0.25]];outlineConnect=0;gradientColor=none;fontSize=24;fontStyle=1;container=1;pointerEvents=0;collapsible=0;recursiveResize=0;shape=mxgraph.aws4.group;grIcon=mxgraph.aws4.group_security_group;grStroke=0;strokeColor=light-dark(#82B366,#006600);fillColor=light-dark(#000000,#CCFF99);verticalAlign=top;align=left;spacingLeft=30;dashed=0;strokeWidth=22;perimeterSpacing=5;labelBackgroundColor=none;textShadow=0;html=1;whiteSpace=wrap;fontFamily=Helvetica;labelBorderColor=none;spacing=-1;fontColor=light-dark(#000000,#009900);" vertex="1" parent="VVqcYURe2gfnDvIVS-2d-5">
          <mxGeometry x="170" y="230" width="380" height="210" as="geometry" />
        </mxCell>
        <mxCell id="VVqcYURe2gfnDvIVS-2d-17" value="" style="sketch=0;points=[[0,0,0],[0.25,0,0],[0.5,0,0],[0.75,0,0],[1,0,0],[0,1,0],[0.25,1,0],[0.5,1,0],[0.75,1,0],[1,1,0],[0,0.25,0],[0,0.5,0],[0,0.75,0],[1,0.25,0],[1,0.5,0],[1,0.75,0]];outlineConnect=0;fontColor=#232F3E;fillColor=#ED7100;strokeColor=#ffffff;dashed=0;verticalLabelPosition=bottom;verticalAlign=top;align=center;html=1;fontSize=12;fontStyle=0;aspect=fixed;shape=mxgraph.aws4.resourceIcon;resIcon=mxgraph.aws4.ec2;" vertex="1" parent="VVqcYURe2gfnDvIVS-2d-5">
          <mxGeometry x="326" y="284" width="129" height="129" as="geometry" />
        </mxCell>
        <mxCell id="VVqcYURe2gfnDvIVS-2d-15" value="" style="sketch=0;outlineConnect=0;fontColor=#232F3E;gradientColor=none;fillColor=#8C4FFF;strokeColor=none;dashed=0;verticalLabelPosition=bottom;verticalAlign=top;align=center;html=1;fontSize=12;fontStyle=0;aspect=fixed;pointerEvents=1;shape=mxgraph.aws4.nat_gateway;" vertex="1" parent="VVqcYURe2gfnDvIVS-2d-5">
          <mxGeometry x="185" y="335" width="78" height="78" as="geometry" />
        </mxCell>
        <mxCell id="VVqcYURe2gfnDvIVS-2d-25" value="Public subnet" style="points=[[0,0],[0.25,0],[0.5,0],[0.75,0],[1,0],[1,0.25],[1,0.5],[1,0.75],[1,1],[0.75,1],[0.5,1],[0.25,1],[0,1],[0,0.75],[0,0.5],[0,0.25]];outlineConnect=0;gradientColor=none;fontSize=24;fontStyle=1;container=1;pointerEvents=0;collapsible=0;recursiveResize=0;shape=mxgraph.aws4.group;grIcon=mxgraph.aws4.group_security_group;grStroke=0;strokeColor=light-dark(#82B366,#006600);fillColor=light-dark(#000000,#CCFF99);verticalAlign=top;align=left;spacingLeft=30;dashed=0;strokeWidth=22;perimeterSpacing=5;labelBackgroundColor=none;textShadow=0;html=1;whiteSpace=wrap;fontFamily=Helvetica;labelBorderColor=none;spacing=-1;fontColor=light-dark(#000000,#009900);" vertex="1" parent="VVqcYURe2gfnDvIVS-2d-5">
          <mxGeometry x="917" y="231.5" width="380" height="212.5" as="geometry" />
        </mxCell>
        <mxCell id="VVqcYURe2gfnDvIVS-2d-93" value="&lt;h1&gt;&lt;font style=&quot;color: light-dark(rgb(51, 0, 0), rgb(20, 17, 17));&quot;&gt;&lt;span style=&quot;font-size: 20px;&quot;&gt;EC2&lt;/span&gt;&lt;/font&gt;&lt;/h1&gt;" style="text;strokeColor=none;fillColor=none;html=1;fontSize=24;fontStyle=1;verticalAlign=middle;align=center;" vertex="1" parent="VVqcYURe2gfnDvIVS-2d-25">
          <mxGeometry x="100" y="159.5" width="232" height="53" as="geometry" />
        </mxCell>
        <mxCell id="VVqcYURe2gfnDvIVS-2d-27" value="" style="sketch=0;points=[[0,0,0],[0.25,0,0],[0.5,0,0],[0.75,0,0],[1,0,0],[0,1,0],[0.25,1,0],[0.5,1,0],[0.75,1,0],[1,1,0],[0,0.25,0],[0,0.5,0],[0,0.75,0],[1,0.25,0],[1,0.5,0],[1,0.75,0]];outlineConnect=0;fontColor=#232F3E;fillColor=#ED7100;strokeColor=#ffffff;dashed=0;verticalLabelPosition=bottom;verticalAlign=top;align=center;html=1;fontSize=13;fontStyle=0;aspect=fixed;shape=mxgraph.aws4.resourceIcon;resIcon=mxgraph.aws4.ec2;" vertex="1" parent="VVqcYURe2gfnDvIVS-2d-5">
          <mxGeometry x="1076" y="284" width="129" height="129" as="geometry" />
        </mxCell>
        <mxCell id="VVqcYURe2gfnDvIVS-2d-28" value="Private subnet" style="points=[[0,0],[0.25,0],[0.5,0],[0.75,0],[1,0],[1,0.25],[1,0.5],[1,0.75],[1,1],[0.75,1],[0.5,1],[0.25,1],[0,1],[0,0.75],[0,0.5],[0,0.25]];outlineConnect=0;gradientColor=none;html=1;whiteSpace=wrap;fontSize=20;fontStyle=0;container=1;pointerEvents=0;collapsible=0;recursiveResize=0;shape=mxgraph.aws4.group;grIcon=mxgraph.aws4.group_security_group;grStroke=0;strokeColor=#00A4A6;fillColor=light-dark(#E6F6F7,#99CCFF);verticalAlign=top;align=left;spacingLeft=30;fontColor=light-dark(#147EBA,#000066);dashed=0;" vertex="1" parent="VVqcYURe2gfnDvIVS-2d-5">
          <mxGeometry x="177" y="525" width="374" height="200" as="geometry" />
        </mxCell>
        <mxCell id="VVqcYURe2gfnDvIVS-2d-18" value="" style="sketch=0;points=[[0,0,0],[0.25,0,0],[0.5,0,0],[0.75,0,0],[1,0,0],[0,1,0],[0.25,1,0],[0.5,1,0],[0.75,1,0],[1,1,0],[0,0.25,0],[0,0.5,0],[0,0.75,0],[1,0.25,0],[1,0.5,0],[1,0.75,0]];outlineConnect=0;fontColor=#232F3E;fillColor=#ED7100;strokeColor=#ffffff;dashed=0;verticalLabelPosition=bottom;verticalAlign=top;align=center;html=1;fontSize=12;fontStyle=0;aspect=fixed;shape=mxgraph.aws4.resourceIcon;resIcon=mxgraph.aws4.ec2;" vertex="1" parent="VVqcYURe2gfnDvIVS-2d-28">
          <mxGeometry x="170" y="37" width="118" height="118" as="geometry" />
        </mxCell>
        <mxCell id="VVqcYURe2gfnDvIVS-2d-95" value="&lt;h1&gt;&lt;font style=&quot;color: light-dark(rgb(51, 0, 0), rgb(20, 17, 17));&quot;&gt;&lt;span style=&quot;font-size: 20px;&quot;&gt;EC2&lt;/span&gt;&lt;/font&gt;&lt;/h1&gt;" style="text;strokeColor=none;fillColor=none;html=1;fontSize=24;fontStyle=1;verticalAlign=middle;align=center;" vertex="1" parent="VVqcYURe2gfnDvIVS-2d-28">
          <mxGeometry x="110" y="138" width="232" height="53" as="geometry" />
        </mxCell>
        <mxCell id="VVqcYURe2gfnDvIVS-2d-35" value="Private subnet" style="points=[[0,0],[0.25,0],[0.5,0],[0.75,0],[1,0],[1,0.25],[1,0.5],[1,0.75],[1,1],[0.75,1],[0.5,1],[0.25,1],[0,1],[0,0.75],[0,0.5],[0,0.25]];outlineConnect=0;gradientColor=none;html=1;whiteSpace=wrap;fontSize=20;fontStyle=0;container=1;pointerEvents=0;collapsible=0;recursiveResize=0;shape=mxgraph.aws4.group;grIcon=mxgraph.aws4.group_security_group;grStroke=0;strokeColor=#00A4A6;fillColor=light-dark(#E6F6F7,#99CCFF);verticalAlign=top;align=left;spacingLeft=30;fontColor=light-dark(#147EBA,#000066);dashed=0;" vertex="1" parent="VVqcYURe2gfnDvIVS-2d-5">
          <mxGeometry x="170" y="812" width="374" height="200" as="geometry" />
        </mxCell>
        <mxCell id="VVqcYURe2gfnDvIVS-2d-19" value="" style="sketch=0;points=[[0,0,0],[0.25,0,0],[0.5,0,0],[0.75,0,0],[1,0,0],[0,1,0],[0.25,1,0],[0.5,1,0],[0.75,1,0],[1,1,0],[0,0.25,0],[0,0.5,0],[0,0.75,0],[1,0.25,0],[1,0.5,0],[1,0.75,0]];outlineConnect=0;fontColor=#232F3E;fillColor=#C925D1;strokeColor=#ffffff;dashed=0;verticalLabelPosition=bottom;verticalAlign=top;align=center;html=1;fontSize=12;fontStyle=0;aspect=fixed;shape=mxgraph.aws4.resourceIcon;resIcon=mxgraph.aws4.rds;" vertex="1" parent="VVqcYURe2gfnDvIVS-2d-35">
          <mxGeometry x="180.5" y="48" width="111" height="111" as="geometry" />
        </mxCell>
        <mxCell id="VVqcYURe2gfnDvIVS-2d-33" value="Private subnet" style="points=[[0,0],[0.25,0],[0.5,0],[0.75,0],[1,0],[1,0.25],[1,0.5],[1,0.75],[1,1],[0.75,1],[0.5,1],[0.25,1],[0,1],[0,0.75],[0,0.5],[0,0.25]];outlineConnect=0;gradientColor=none;html=1;whiteSpace=wrap;fontSize=20;fontStyle=0;container=1;pointerEvents=0;collapsible=0;recursiveResize=0;shape=mxgraph.aws4.group;grIcon=mxgraph.aws4.group_security_group;grStroke=0;strokeColor=#00A4A6;fillColor=light-dark(#E6F6F7,#99CCFF);verticalAlign=top;align=left;spacingLeft=30;fontColor=light-dark(#147EBA,#000066);dashed=0;" vertex="1" parent="VVqcYURe2gfnDvIVS-2d-5">
          <mxGeometry x="923" y="525" width="374" height="200" as="geometry" />
        </mxCell>
        <mxCell id="VVqcYURe2gfnDvIVS-2d-34" value="" style="sketch=0;points=[[0,0,0],[0.25,0,0],[0.5,0,0],[0.75,0,0],[1,0,0],[0,1,0],[0.25,1,0],[0.5,1,0],[0.75,1,0],[1,1,0],[0,0.25,0],[0,0.5,0],[0,0.75,0],[1,0.25,0],[1,0.5,0],[1,0.75,0]];outlineConnect=0;fontColor=#232F3E;fillColor=#ED7100;strokeColor=#ffffff;dashed=0;verticalLabelPosition=bottom;verticalAlign=top;align=center;html=1;fontSize=12;fontStyle=0;aspect=fixed;shape=mxgraph.aws4.resourceIcon;resIcon=mxgraph.aws4.ec2;" vertex="1" parent="VVqcYURe2gfnDvIVS-2d-33">
          <mxGeometry x="170" y="37" width="118" height="118" as="geometry" />
        </mxCell>
        <mxCell id="VVqcYURe2gfnDvIVS-2d-94" value="&lt;h1&gt;&lt;font style=&quot;color: light-dark(rgb(51, 0, 0), rgb(20, 17, 17));&quot;&gt;&lt;span style=&quot;font-size: 20px;&quot;&gt;EC2&lt;/span&gt;&lt;/font&gt;&lt;/h1&gt;" style="text;strokeColor=none;fillColor=none;html=1;fontSize=24;fontStyle=1;verticalAlign=middle;align=center;" vertex="1" parent="VVqcYURe2gfnDvIVS-2d-33">
          <mxGeometry x="113" y="136" width="232" height="53" as="geometry" />
        </mxCell>
        <mxCell id="VVqcYURe2gfnDvIVS-2d-31" value="Private subnet" style="points=[[0,0],[0.25,0],[0.5,0],[0.75,0],[1,0],[1,0.25],[1,0.5],[1,0.75],[1,1],[0.75,1],[0.5,1],[0.25,1],[0,1],[0,0.75],[0,0.5],[0,0.25]];outlineConnect=0;gradientColor=none;html=1;whiteSpace=wrap;fontSize=20;fontStyle=0;container=1;pointerEvents=0;collapsible=0;recursiveResize=0;shape=mxgraph.aws4.group;grIcon=mxgraph.aws4.group_security_group;grStroke=0;strokeColor=#00A4A6;fillColor=light-dark(#E6F6F7,#99CCFF);verticalAlign=top;align=left;spacingLeft=30;fontColor=light-dark(#147EBA,#000066);dashed=0;" vertex="1" parent="VVqcYURe2gfnDvIVS-2d-5">
          <mxGeometry x="923" y="815.5" width="374" height="200" as="geometry" />
        </mxCell>
        <mxCell id="VVqcYURe2gfnDvIVS-2d-37" value="" style="sketch=0;points=[[0,0,0],[0.25,0,0],[0.5,0,0],[0.75,0,0],[1,0,0],[0,1,0],[0.25,1,0],[0.5,1,0],[0.75,1,0],[1,1,0],[0,0.25,0],[0,0.5,0],[0,0.75,0],[1,0.25,0],[1,0.5,0],[1,0.75,0]];outlineConnect=0;fontColor=#232F3E;fillColor=#C925D1;strokeColor=#ffffff;dashed=0;verticalLabelPosition=bottom;verticalAlign=top;align=center;html=1;fontSize=12;fontStyle=0;aspect=fixed;shape=mxgraph.aws4.resourceIcon;resIcon=mxgraph.aws4.rds;" vertex="1" parent="VVqcYURe2gfnDvIVS-2d-31">
          <mxGeometry x="200" y="49.5" width="111" height="111" as="geometry" />
        </mxCell>
        <mxCell id="VVqcYURe2gfnDvIVS-2d-41" value="" style="outlineConnect=0;dashed=0;verticalLabelPosition=bottom;verticalAlign=top;align=center;html=1;shape=mxgraph.aws3.auto_scaling;fillColor=#F58534;gradientColor=none;" vertex="1" parent="VVqcYURe2gfnDvIVS-2d-5">
          <mxGeometry x="704.5" y="522" width="79.5" height="76.5" as="geometry" />
        </mxCell>
        <mxCell id="VVqcYURe2gfnDvIVS-2d-43" value="" style="sketch=0;outlineConnect=0;fontColor=#232F3E;gradientColor=none;fillColor=#8C4FFF;strokeColor=none;dashed=0;verticalLabelPosition=bottom;verticalAlign=top;align=center;html=1;fontSize=12;fontStyle=0;aspect=fixed;pointerEvents=1;shape=mxgraph.aws4.application_load_balancer;" vertex="1" parent="VVqcYURe2gfnDvIVS-2d-5">
          <mxGeometry x="703" y="128" width="78" height="78" as="geometry" />
        </mxCell>
        <mxCell id="VVqcYURe2gfnDvIVS-2d-42" value="" style="sketch=0;outlineConnect=0;fontColor=#232F3E;gradientColor=none;fillColor=#8C4FFF;strokeColor=none;dashed=0;verticalLabelPosition=bottom;verticalAlign=top;align=center;html=1;fontSize=12;fontStyle=0;aspect=fixed;pointerEvents=1;shape=mxgraph.aws4.application_load_balancer;" vertex="1" parent="VVqcYURe2gfnDvIVS-2d-5">
          <mxGeometry x="704.5" y="434" width="78" height="78" as="geometry" />
        </mxCell>
        <mxCell id="VVqcYURe2gfnDvIVS-2d-45" value="" style="edgeStyle=orthogonalEdgeStyle;rounded=0;orthogonalLoop=1;jettySize=auto;html=1;" edge="1" parent="VVqcYURe2gfnDvIVS-2d-5" source="VVqcYURe2gfnDvIVS-2d-44" target="VVqcYURe2gfnDvIVS-2d-9">
          <mxGeometry relative="1" as="geometry" />
        </mxCell>
        <mxCell id="VVqcYURe2gfnDvIVS-2d-46" value="" style="edgeStyle=orthogonalEdgeStyle;rounded=0;orthogonalLoop=1;jettySize=auto;html=1;" edge="1" parent="VVqcYURe2gfnDvIVS-2d-5" source="VVqcYURe2gfnDvIVS-2d-44" target="VVqcYURe2gfnDvIVS-2d-42">
          <mxGeometry relative="1" as="geometry" />
        </mxCell>
        <mxCell id="VVqcYURe2gfnDvIVS-2d-44" value="&lt;h1&gt;&lt;font style=&quot;color: light-dark(rgb(0, 0, 0), rgb(51, 0, 0)); font-size: 41px;&quot;&gt;WEB TIER&lt;/font&gt;&lt;/h1&gt;" style="text;strokeColor=none;fillColor=none;html=1;fontSize=24;fontStyle=1;verticalAlign=middle;align=center;" vertex="1" parent="VVqcYURe2gfnDvIVS-2d-5">
          <mxGeometry x="692" y="343" width="100" height="40" as="geometry" />
        </mxCell>
        <mxCell id="VVqcYURe2gfnDvIVS-2d-76" value="&lt;h1&gt;&lt;font style=&quot;font-size: 41px; color: light-dark(rgb(0, 0, 0), rgb(102, 0, 102));&quot;&gt;DB TIER&lt;/font&gt;&lt;/h1&gt;" style="text;strokeColor=none;fillColor=none;html=1;fontSize=24;fontStyle=1;verticalAlign=middle;align=center;" vertex="1" parent="VVqcYURe2gfnDvIVS-2d-5">
          <mxGeometry x="690" y="920" width="100" height="40" as="geometry" />
        </mxCell>
        <mxCell id="VVqcYURe2gfnDvIVS-2d-75" value="&lt;h1&gt;&lt;font style=&quot;color: light-dark(rgb(51, 0, 0), rgb(153, 76, 0));&quot;&gt;&lt;span style=&quot;font-size: 41px;&quot;&gt;APP TIER&lt;/span&gt;&lt;/font&gt;&lt;/h1&gt;" style="text;strokeColor=none;fillColor=none;html=1;fontSize=24;fontStyle=1;verticalAlign=middle;align=center;" vertex="1" parent="VVqcYURe2gfnDvIVS-2d-5">
          <mxGeometry x="692" y="655" width="100" height="40" as="geometry" />
        </mxCell>
        <mxCell id="VVqcYURe2gfnDvIVS-2d-79" value="" style="edgeStyle=elbowEdgeStyle;elbow=horizontal;endArrow=classic;html=1;curved=0;rounded=0;endSize=8;startSize=8;strokeColor=light-dark(#000000,#006633);" edge="1" parent="VVqcYURe2gfnDvIVS-2d-5" target="VVqcYURe2gfnDvIVS-2d-77">
          <mxGeometry width="50" height="50" relative="1" as="geometry">
            <mxPoint x="777" y="167" as="sourcePoint" />
            <mxPoint x="1780" y="122" as="targetPoint" />
            <Array as="points">
              <mxPoint x="812" y="123" />
            </Array>
          </mxGeometry>
        </mxCell>
        <mxCell id="VVqcYURe2gfnDvIVS-2d-80" value="&lt;h1&gt;&lt;font style=&quot;font-size: 20px; color: light-dark(rgb(0, 0, 0), rgb(0, 102, 0));&quot;&gt;write access logs&lt;/font&gt;&lt;/h1&gt;" style="text;strokeColor=none;fillColor=none;html=1;fontSize=24;fontStyle=1;verticalAlign=middle;align=center;" vertex="1" parent="VVqcYURe2gfnDvIVS-2d-5">
          <mxGeometry x="137" y="65" width="232" height="53" as="geometry" />
        </mxCell>
        <mxCell id="VVqcYURe2gfnDvIVS-2d-90" value="" style="edgeStyle=orthogonalEdgeStyle;rounded=0;orthogonalLoop=1;jettySize=auto;html=1;" edge="1" parent="VVqcYURe2gfnDvIVS-2d-5" source="VVqcYURe2gfnDvIVS-2d-10" target="VVqcYURe2gfnDvIVS-2d-89">
          <mxGeometry relative="1" as="geometry">
            <mxPoint x="777" y="96" as="sourcePoint" />
            <mxPoint x="760.5" y="193" as="targetPoint" />
          </mxGeometry>
        </mxCell>
        <mxCell id="VVqcYURe2gfnDvIVS-2d-91" value="&lt;h1&gt;&lt;font style=&quot;color: light-dark(rgb(0, 0, 0), rgb(51, 0, 0)); font-size: 20px;&quot;&gt;Auto Scaling&lt;/font&gt;&lt;/h1&gt;" style="text;strokeColor=none;fillColor=none;html=1;fontSize=24;fontStyle=1;verticalAlign=middle;align=center;" vertex="1" parent="VVqcYURe2gfnDvIVS-2d-5">
          <mxGeometry x="626" y="583" width="232" height="53" as="geometry" />
        </mxCell>
        <mxCell id="VVqcYURe2gfnDvIVS-2d-92" value="&lt;h1&gt;&lt;font style=&quot;color: light-dark(rgb(51, 0, 0), rgb(20, 17, 17));&quot;&gt;&lt;span style=&quot;font-size: 20px;&quot;&gt;EC2&lt;/span&gt;&lt;/font&gt;&lt;/h1&gt;" style="text;strokeColor=none;fillColor=none;html=1;fontSize=24;fontStyle=1;verticalAlign=middle;align=center;" vertex="1" parent="VVqcYURe2gfnDvIVS-2d-5">
          <mxGeometry x="279" y="391" width="232" height="53" as="geometry" />
        </mxCell>
        <mxCell id="VVqcYURe2gfnDvIVS-2d-96" value="&lt;h1&gt;&lt;font style=&quot;color: light-dark(rgb(51, 0, 0), rgb(20, 17, 17));&quot;&gt;&lt;span style=&quot;font-size: 20px;&quot;&gt;NAT Getway&lt;/span&gt;&lt;/font&gt;&lt;/h1&gt;" style="text;strokeColor=none;fillColor=none;html=1;fontSize=24;fontStyle=1;verticalAlign=middle;align=center;" vertex="1" parent="VVqcYURe2gfnDvIVS-2d-5">
          <mxGeometry x="127" y="391" width="232" height="53" as="geometry" />
        </mxCell>
        <mxCell id="VVqcYURe2gfnDvIVS-2d-97" value="&lt;h1&gt;&lt;font style=&quot;color: light-dark(rgb(51, 0, 0), rgb(20, 17, 17));&quot;&gt;&lt;span style=&quot;font-size: 20px;&quot;&gt;RDS&lt;/span&gt;&lt;/font&gt;&lt;/h1&gt;" style="text;strokeColor=none;fillColor=none;html=1;fontSize=24;fontStyle=1;verticalAlign=middle;align=center;" vertex="1" parent="VVqcYURe2gfnDvIVS-2d-5">
          <mxGeometry x="288" y="954" width="232" height="53" as="geometry" />
        </mxCell>
        <mxCell id="VVqcYURe2gfnDvIVS-2d-98" value="&lt;h1&gt;&lt;font style=&quot;color: light-dark(rgb(51, 0, 0), rgb(20, 17, 17));&quot;&gt;&lt;span style=&quot;font-size: 20px;&quot;&gt;RDS Replica&lt;/span&gt;&lt;/font&gt;&lt;/h1&gt;" style="text;strokeColor=none;fillColor=none;html=1;fontSize=24;fontStyle=1;verticalAlign=middle;align=center;" vertex="1" parent="VVqcYURe2gfnDvIVS-2d-5">
          <mxGeometry x="1065" y="960" width="232" height="53" as="geometry" />
        </mxCell>
        <mxCell id="VVqcYURe2gfnDvIVS-2d-89" value="&lt;h1&gt;&lt;font style=&quot;color: light-dark(rgb(0, 0, 0), rgb(51, 0, 0)); font-size: 20px;&quot;&gt;ALB&lt;/font&gt;&lt;/h1&gt;" style="text;strokeColor=none;fillColor=none;html=1;fontSize=24;fontStyle=1;verticalAlign=middle;align=center;" vertex="1" parent="VVqcYURe2gfnDvIVS-2d-5">
          <mxGeometry x="560" y="111" width="232" height="53" as="geometry" />
        </mxCell>
        <mxCell id="VVqcYURe2gfnDvIVS-2d-83" style="edgeStyle=orthogonalEdgeStyle;rounded=0;orthogonalLoop=1;jettySize=auto;html=1;strokeColor=light-dark(#000000,#663300);" edge="1" parent="1" source="VVqcYURe2gfnDvIVS-2d-85" target="VVqcYURe2gfnDvIVS-2d-81">
          <mxGeometry relative="1" as="geometry" />
        </mxCell>
        <mxCell id="VVqcYURe2gfnDvIVS-2d-77" value="" style="sketch=0;outlineConnect=0;fontColor=#232F3E;gradientColor=none;fillColor=#7AA116;strokeColor=none;dashed=0;verticalLabelPosition=bottom;verticalAlign=top;align=center;html=1;fontSize=12;fontStyle=0;aspect=fixed;pointerEvents=1;shape=mxgraph.aws4.bucket_with_objects;" vertex="1" parent="1">
          <mxGeometry x="-1371" y="127" width="92" height="95.68" as="geometry" />
        </mxCell>
        <mxCell id="VVqcYURe2gfnDvIVS-2d-78" value="&lt;h1&gt;&lt;font style=&quot;color: light-dark(rgb(0, 0, 0), rgb(51, 0, 0)); font-size: 20px;&quot;&gt;ALB access logs bucket&lt;/font&gt;&lt;/h1&gt;" style="text;strokeColor=none;fillColor=none;html=1;fontSize=24;fontStyle=1;verticalAlign=middle;align=center;" vertex="1" parent="1">
          <mxGeometry x="-1566" y="212" width="232" height="53" as="geometry" />
        </mxCell>
        <mxCell id="VVqcYURe2gfnDvIVS-2d-81" value="" style="sketch=0;outlineConnect=0;fontColor=#232F3E;gradientColor=none;fillColor=#ED7100;strokeColor=none;dashed=0;verticalLabelPosition=bottom;verticalAlign=top;align=center;html=1;fontSize=12;fontStyle=0;aspect=fixed;pointerEvents=1;shape=mxgraph.aws4.lambda_function;" vertex="1" parent="1">
          <mxGeometry x="-1376.5" y="507" width="103" height="103" as="geometry" />
        </mxCell>
        <mxCell id="VVqcYURe2gfnDvIVS-2d-84" value="&lt;h1&gt;&lt;font style=&quot;color: light-dark(rgb(0, 0, 0), rgb(51, 0, 0)); font-size: 20px;&quot;&gt;LAMBDA&lt;/font&gt;&lt;/h1&gt;" style="text;strokeColor=none;fillColor=none;html=1;fontSize=24;fontStyle=1;verticalAlign=middle;align=center;" vertex="1" parent="1">
          <mxGeometry x="-1449" y="590" width="232" height="53" as="geometry" />
        </mxCell>
        <mxCell id="VVqcYURe2gfnDvIVS-2d-86" value="" style="edgeStyle=orthogonalEdgeStyle;rounded=0;orthogonalLoop=1;jettySize=auto;html=1;strokeColor=light-dark(#000000,#663300);" edge="1" parent="1" source="VVqcYURe2gfnDvIVS-2d-77" target="VVqcYURe2gfnDvIVS-2d-85">
          <mxGeometry relative="1" as="geometry">
            <mxPoint x="740" y="248" as="sourcePoint" />
            <mxPoint x="740" y="476" as="targetPoint" />
          </mxGeometry>
        </mxCell>
        <mxCell id="VVqcYURe2gfnDvIVS-2d-85" value="&lt;h1&gt;&lt;font style=&quot;color: light-dark(rgb(51, 0, 0), rgb(102, 51, 0));&quot;&gt;&lt;span style=&quot;font-size: 20px;&quot;&gt;Object created Event&lt;/span&gt;&lt;/font&gt;&lt;/h1&gt;" style="text;strokeColor=none;fillColor=none;html=1;fontSize=24;fontStyle=1;verticalAlign=middle;align=center;" vertex="1" parent="1">
          <mxGeometry x="-1441" y="344" width="232" height="53" as="geometry" />
        </mxCell>
        <mxCell id="VVqcYURe2gfnDvIVS-2d-99" value="&lt;h1&gt;&lt;font style=&quot;color: light-dark(rgb(51, 0, 0), rgb(102, 51, 0));&quot;&gt;&lt;span style=&quot;font-size: 20px;&quot;&gt;Parsing + Formatting&lt;/span&gt;&lt;/font&gt;&lt;/h1&gt;" style="text;strokeColor=none;fillColor=none;html=1;fontSize=24;fontStyle=1;verticalAlign=middle;align=center;" vertex="1" parent="1">
          <mxGeometry x="-1444" y="626" width="232" height="53" as="geometry" />
        </mxCell>
        <mxCell id="VVqcYURe2gfnDvIVS-2d-100" value="" style="verticalLabelPosition=bottom;sketch=0;html=1;fillColor=light-dark(#FFFFFF,#990099);strokeColor=none;verticalAlign=top;align=center;points=[[0,0.5,0],[0.125,0.25,0],[0.25,0,0],[0.5,0,0],[0.75,0,0],[0.875,0.25,0],[1,0.5,0],[0.875,0.75,0],[0.75,1,0],[0.5,1,0],[0.125,0.75,0]];pointerEvents=1;shape=mxgraph.cisco_safe.compositeIcon;bgIcon=mxgraph.cisco_safe.design.blank_device;resIcon=mxgraph.cisco_safe.design.siem_2;" vertex="1" parent="1">
          <mxGeometry x="-1423.25" y="835" width="180.5" height="146" as="geometry" />
        </mxCell>
        <mxCell id="VVqcYURe2gfnDvIVS-2d-101" style="edgeStyle=orthogonalEdgeStyle;rounded=0;orthogonalLoop=1;jettySize=auto;html=1;exitX=0.5;exitY=0;exitDx=0;exitDy=0;entryX=0.5;entryY=0;entryDx=0;entryDy=0;entryPerimeter=0;strokeColor=light-dark(#000000,#330033);" edge="1" parent="1" source="VVqcYURe2gfnDvIVS-2d-84" target="VVqcYURe2gfnDvIVS-2d-100">
          <mxGeometry relative="1" as="geometry" />
        </mxCell>
        <mxCell id="VVqcYURe2gfnDvIVS-2d-102" value="&lt;h1&gt;&lt;font style=&quot;color: light-dark(rgb(51, 0, 0), rgb(102, 51, 0));&quot;&gt;&lt;span style=&quot;font-size: 20px;&quot;&gt;HTTP/Syslog&lt;/span&gt;&lt;/font&gt;&lt;/h1&gt;" style="text;strokeColor=none;fillColor=none;html=1;fontSize=24;fontStyle=1;verticalAlign=middle;align=center;" vertex="1" parent="1">
          <mxGeometry x="-1449" y="970" width="232" height="53" as="geometry" />
        </mxCell>
        <mxCell id="VVqcYURe2gfnDvIVS-2d-103" value="&lt;h1&gt;&lt;font style=&quot;color: light-dark(rgb(0, 0, 0), rgb(51, 0, 0)); font-size: 20px;&quot;&gt;External&lt;/font&gt;&lt;/h1&gt;" style="text;strokeColor=none;fillColor=none;html=1;fontSize=24;fontStyle=1;verticalAlign=middle;align=center;" vertex="1" parent="1">
          <mxGeometry x="-1511" y="782" width="232" height="53" as="geometry" />
        </mxCell>
        <mxCell id="VVqcYURe2gfnDvIVS-2d-105" value="Inspection VPC" style="points=[[0,0],[0.25,0],[0.5,0],[0.75,0],[1,0],[1,0.25],[1,0.5],[1,0.75],[1,1],[0.75,1],[0.5,1],[0.25,1],[0,1],[0,0.75],[0,0.5],[0,0.25]];outlineConnect=0;gradientColor=none;html=1;whiteSpace=wrap;fontSize=27;fontStyle=0;container=1;pointerEvents=0;collapsible=0;recursiveResize=0;shape=mxgraph.aws4.group;grIcon=mxgraph.aws4.group_vpc2;strokeColor=light-dark(#8C4FFF,#990000);fillColor=none;verticalAlign=top;align=left;spacingLeft=30;fontColor=#AAB7B8;strokeWidth=7;perimeterSpacing=6;" vertex="1" parent="1">
          <mxGeometry x="119" y="1278" width="1330" height="938" as="geometry" />
        </mxCell>
        <mxCell id="VVqcYURe2gfnDvIVS-2d-154" value="Availability Zone-a" style="fillColor=none;strokeColor=light-dark(#147EBA,#990000);dashed=1;verticalAlign=top;fontStyle=0;fontColor=#147EBA;whiteSpace=wrap;html=1;strokeWidth=7;perimeterSpacing=3;rounded=1;glass=0;shadow=0;sketch=1;curveFitting=1;jiggle=2;fontSize=27;" vertex="1" parent="VVqcYURe2gfnDvIVS-2d-105">
          <mxGeometry x="386" y="33" width="536" height="846" as="geometry" />
        </mxCell>
        <mxCell id="VVqcYURe2gfnDvIVS-2d-140" value="" style="edgeStyle=orthogonalEdgeStyle;rounded=0;orthogonalLoop=1;jettySize=auto;html=1;" edge="1" parent="VVqcYURe2gfnDvIVS-2d-105">
          <mxGeometry relative="1" as="geometry">
            <mxPoint x="718" y="-5" as="sourcePoint" />
            <mxPoint x="676" y="111" as="targetPoint" />
          </mxGeometry>
        </mxCell>
        <mxCell id="VVqcYURe2gfnDvIVS-2d-151" value="" style="sketch=0;outlineConnect=0;fontColor=#232F3E;gradientColor=none;fillColor=light-dark(#DD344C,#CC0000);strokeColor=none;dashed=0;verticalLabelPosition=bottom;verticalAlign=top;align=center;html=1;fontSize=12;fontStyle=0;aspect=fixed;pointerEvents=1;shape=mxgraph.aws4.network_firewall_endpoints;" vertex="1" parent="VVqcYURe2gfnDvIVS-2d-105">
          <mxGeometry x="702" y="215" width="78" height="78" as="geometry" />
        </mxCell>
        <mxCell id="VVqcYURe2gfnDvIVS-2d-148" style="edgeStyle=orthogonalEdgeStyle;rounded=0;orthogonalLoop=1;jettySize=auto;html=1;fontColor=light-dark(#000000,#330066);fontSize=13;strokeColor=light-dark(#000000,#660066);strokeWidth=5;" edge="1" parent="1" source="VVqcYURe2gfnDvIVS-2d-147" target="VVqcYURe2gfnDvIVS-2d-5">
          <mxGeometry relative="1" as="geometry" />
        </mxCell>
        <mxCell id="VVqcYURe2gfnDvIVS-2d-149" style="edgeStyle=orthogonalEdgeStyle;rounded=0;orthogonalLoop=1;jettySize=auto;html=1;strokeColor=light-dark(#000000,#660066);strokeWidth=5;" edge="1" parent="1" source="VVqcYURe2gfnDvIVS-2d-147" target="VVqcYURe2gfnDvIVS-2d-105">
          <mxGeometry relative="1" as="geometry">
            <Array as="points">
              <mxPoint x="1191" y="808" />
              <mxPoint x="1191" y="808" />
            </Array>
          </mxGeometry>
        </mxCell>
        <mxCell id="VVqcYURe2gfnDvIVS-2d-147" value="Peering" style="sketch=0;outlineConnect=0;fontColor=light-dark(#232F3E,#6600CC);gradientColor=none;strokeColor=light-dark(#232F3E,#7F00FF);fillColor=none;dashed=0;verticalLabelPosition=bottom;verticalAlign=top;align=center;html=1;fontSize=22;fontStyle=0;aspect=fixed;shape=mxgraph.aws4.resourceIcon;resIcon=mxgraph.aws4.peering;" vertex="1" parent="1">
          <mxGeometry x="950" y="511.5" width="218" height="218" as="geometry" />
        </mxCell>
      </root>
    </mxGraphModel>
  </diagram>
</mxfile>
